<mxfile host="app.diagrams.net" agent="Mozilla/5.0 (Windows NT 10.0; Win64; x64) AppleWebKit/537.36 (KHTML, like Gecko) Chrome/137.0.0.0 Safari/537.36" version="27.1.6">
  <diagram id="l9IXvxG_BA95-pIyNstP" name="Page-1">
    <mxGraphModel dx="1426" dy="783" grid="1" gridSize="10" guides="1" tooltips="1" connect="1" arrows="1" fold="1" page="1" pageScale="1" pageWidth="850" pageHeight="1100" math="0" shadow="0">
      <root>
        <mxCell id="0" />
        <mxCell id="1" parent="0" />
        <mxCell id="MdLmkaZuM6xwngXtsAeK-4" value="XLSX文件&lt;br&gt;解壓縮" style="shape=step;perimeter=stepPerimeter;whiteSpace=wrap;html=1;fixedSize=1;fillColor=#dae8fc;strokeColor=#6c8ebf;" parent="1" vertex="1">
          <mxGeometry x="210" y="130" width="120" height="80" as="geometry" />
        </mxCell>
        <mxCell id="MdLmkaZuM6xwngXtsAeK-5" value="Excel 解析流程" style="rounded=0;whiteSpace=wrap;html=1;fillColor=#dae8fc;strokeColor=#6c8ebf;" parent="1" vertex="1">
          <mxGeometry x="40" y="140" width="120" height="60" as="geometry" />
        </mxCell>
        <mxCell id="MdLmkaZuM6xwngXtsAeK-6" value="解析&lt;br&gt;OpenXML" style="shape=step;perimeter=stepPerimeter;whiteSpace=wrap;html=1;fixedSize=1;fillColor=#dae8fc;strokeColor=#6c8ebf;" parent="1" vertex="1">
          <mxGeometry x="380" y="130" width="120" height="80" as="geometry" />
        </mxCell>
        <mxCell id="MdLmkaZuM6xwngXtsAeK-8" value="一般框架" style="whiteSpace=wrap;html=1;fillColor=#f8cecc;strokeColor=#b85450;" parent="1" vertex="1">
          <mxGeometry x="40" y="239" width="120" height="60" as="geometry" />
        </mxCell>
        <mxCell id="MdLmkaZuM6xwngXtsAeK-10" value="記憶體" style="shape=step;perimeter=stepPerimeter;whiteSpace=wrap;html=1;fixedSize=1;fillColor=#f8cecc;strokeColor=#b85450;" parent="1" vertex="1">
          <mxGeometry x="210" y="229" width="120" height="80" as="geometry" />
        </mxCell>
        <mxCell id="MdLmkaZuM6xwngXtsAeK-11" value="記憶體" style="shape=step;perimeter=stepPerimeter;whiteSpace=wrap;html=1;fixedSize=1;fillColor=#f8cecc;strokeColor=#b85450;" parent="1" vertex="1">
          <mxGeometry x="380" y="229" width="120" height="80" as="geometry" />
        </mxCell>
        <mxCell id="MdLmkaZuM6xwngXtsAeK-12" value="MiniExcel" style="whiteSpace=wrap;html=1;fillColor=#d5e8d4;strokeColor=#82b366;" parent="1" vertex="1">
          <mxGeometry x="40" y="340" width="120" height="60" as="geometry" />
        </mxCell>
        <mxCell id="MdLmkaZuM6xwngXtsAeK-13" value="Stream流" style="shape=step;perimeter=stepPerimeter;whiteSpace=wrap;html=1;fixedSize=1;fillColor=#d5e8d4;strokeColor=#82b366;" parent="1" vertex="1">
          <mxGeometry x="210" y="330" width="120" height="80" as="geometry" />
        </mxCell>
        <mxCell id="MdLmkaZuM6xwngXtsAeK-14" value="封裝類別" style="shape=step;perimeter=stepPerimeter;whiteSpace=wrap;html=1;fixedSize=1;fillColor=#f8cecc;strokeColor=#b85450;" parent="1" vertex="1">
          <mxGeometry x="540" y="229" width="120" height="80" as="geometry" />
        </mxCell>
        <mxCell id="MdLmkaZuM6xwngXtsAeK-15" value="模型轉換" style="shape=step;perimeter=stepPerimeter;whiteSpace=wrap;html=1;fixedSize=1;fillColor=#dae8fc;strokeColor=#6c8ebf;" parent="1" vertex="1">
          <mxGeometry x="540" y="130" width="120" height="80" as="geometry" />
        </mxCell>
        <mxCell id="MdLmkaZuM6xwngXtsAeK-16" value="返回結果" style="shape=step;perimeter=stepPerimeter;whiteSpace=wrap;html=1;fixedSize=1;fillColor=#dae8fc;strokeColor=#6c8ebf;" parent="1" vertex="1">
          <mxGeometry x="690" y="130" width="120" height="80" as="geometry" />
        </mxCell>
        <mxCell id="MdLmkaZuM6xwngXtsAeK-17" value="Stream流" style="shape=step;perimeter=stepPerimeter;whiteSpace=wrap;html=1;fixedSize=1;fillColor=#d5e8d4;strokeColor=#82b366;" parent="1" vertex="1">
          <mxGeometry x="380" y="330" width="120" height="80" as="geometry" />
        </mxCell>
        <mxCell id="MdLmkaZuM6xwngXtsAeK-18" value="POCO&lt;br&gt;或 dynamic&lt;br&gt;" style="shape=step;perimeter=stepPerimeter;whiteSpace=wrap;html=1;fixedSize=1;fillColor=#d5e8d4;strokeColor=#82b366;" parent="1" vertex="1">
          <mxGeometry x="540" y="330" width="120" height="80" as="geometry" />
        </mxCell>
        <mxCell id="MdLmkaZuM6xwngXtsAeK-19" value="延遲查詢&lt;br&gt;一行一行返回" style="shape=step;perimeter=stepPerimeter;whiteSpace=wrap;html=1;fixedSize=1;fillColor=#d5e8d4;strokeColor=#82b366;" parent="1" vertex="1">
          <mxGeometry x="690" y="330" width="120" height="80" as="geometry" />
        </mxCell>
        <mxCell id="MdLmkaZuM6xwngXtsAeK-20" value="全部資料" style="shape=step;perimeter=stepPerimeter;whiteSpace=wrap;html=1;fixedSize=1;fillColor=#f8cecc;strokeColor=#b85450;" parent="1" vertex="1">
          <mxGeometry x="690" y="229" width="120" height="80" as="geometry" />
        </mxCell>
        <mxCell id="MdLmkaZuM6xwngXtsAeK-21" value="&lt;div&gt;Unzipping&lt;/div&gt;&lt;div&gt;XLSX file&lt;/div&gt;" style="shape=step;perimeter=stepPerimeter;whiteSpace=wrap;html=1;fixedSize=1;fillColor=#dae8fc;strokeColor=#6c8ebf;" parent="1" vertex="1">
          <mxGeometry x="210" y="480" width="120" height="80" as="geometry" />
        </mxCell>
        <mxCell id="MdLmkaZuM6xwngXtsAeK-22" value="Excel analysis process" style="rounded=0;whiteSpace=wrap;html=1;fillColor=#dae8fc;strokeColor=#6c8ebf;" parent="1" vertex="1">
          <mxGeometry x="40" y="490" width="120" height="60" as="geometry" />
        </mxCell>
        <mxCell id="MdLmkaZuM6xwngXtsAeK-23" value="&lt;div&gt;Parsing&lt;/div&gt;&lt;div&gt;OpenXML&lt;/div&gt;" style="shape=step;perimeter=stepPerimeter;whiteSpace=wrap;html=1;fixedSize=1;fillColor=#dae8fc;strokeColor=#6c8ebf;" parent="1" vertex="1">
          <mxGeometry x="380" y="480" width="120" height="80" as="geometry" />
        </mxCell>
        <mxCell id="MdLmkaZuM6xwngXtsAeK-24" value="Other Excel Frameworks" style="whiteSpace=wrap;html=1;fillColor=#f8cecc;strokeColor=#b85450;" parent="1" vertex="1">
          <mxGeometry x="40" y="589" width="120" height="60" as="geometry" />
        </mxCell>
        <mxCell id="MdLmkaZuM6xwngXtsAeK-25" value="Memory" style="shape=step;perimeter=stepPerimeter;whiteSpace=wrap;html=1;fixedSize=1;fillColor=#f8cecc;strokeColor=#b85450;" parent="1" vertex="1">
          <mxGeometry x="210" y="579" width="120" height="80" as="geometry" />
        </mxCell>
        <mxCell id="MdLmkaZuM6xwngXtsAeK-26" value="Memory" style="shape=step;perimeter=stepPerimeter;whiteSpace=wrap;html=1;fixedSize=1;fillColor=#f8cecc;strokeColor=#b85450;" parent="1" vertex="1">
          <mxGeometry x="380" y="579" width="120" height="80" as="geometry" />
        </mxCell>
        <mxCell id="MdLmkaZuM6xwngXtsAeK-27" value="MiniExcel" style="whiteSpace=wrap;html=1;fillColor=#d5e8d4;strokeColor=#82b366;" parent="1" vertex="1">
          <mxGeometry x="40" y="690" width="120" height="60" as="geometry" />
        </mxCell>
        <mxCell id="MdLmkaZuM6xwngXtsAeK-28" value="Stream" style="shape=step;perimeter=stepPerimeter;whiteSpace=wrap;html=1;fixedSize=1;fillColor=#d5e8d4;strokeColor=#82b366;" parent="1" vertex="1">
          <mxGeometry x="210" y="680" width="120" height="80" as="geometry" />
        </mxCell>
        <mxCell id="MdLmkaZuM6xwngXtsAeK-29" value="Workbooks &amp;amp;&lt;br&gt;Worksheets" style="shape=step;perimeter=stepPerimeter;whiteSpace=wrap;html=1;fixedSize=1;fillColor=#f8cecc;strokeColor=#b85450;" parent="1" vertex="1">
          <mxGeometry x="540" y="579" width="120" height="80" as="geometry" />
        </mxCell>
        <mxCell id="MdLmkaZuM6xwngXtsAeK-30" value="Model &lt;br&gt;conversion" style="shape=step;perimeter=stepPerimeter;whiteSpace=wrap;html=1;fixedSize=1;fillColor=#dae8fc;strokeColor=#6c8ebf;" parent="1" vertex="1">
          <mxGeometry x="540" y="480" width="120" height="80" as="geometry" />
        </mxCell>
        <mxCell id="MdLmkaZuM6xwngXtsAeK-31" value="output" style="shape=step;perimeter=stepPerimeter;whiteSpace=wrap;html=1;fixedSize=1;fillColor=#dae8fc;strokeColor=#6c8ebf;" parent="1" vertex="1">
          <mxGeometry x="690" y="480" width="120" height="80" as="geometry" />
        </mxCell>
        <mxCell id="MdLmkaZuM6xwngXtsAeK-32" value="Stream" style="shape=step;perimeter=stepPerimeter;whiteSpace=wrap;html=1;fixedSize=1;fillColor=#d5e8d4;strokeColor=#82b366;" parent="1" vertex="1">
          <mxGeometry x="380" y="680" width="120" height="80" as="geometry" />
        </mxCell>
        <mxCell id="MdLmkaZuM6xwngXtsAeK-33" value="POCO&lt;br&gt;or dynamic" style="shape=step;perimeter=stepPerimeter;whiteSpace=wrap;html=1;fixedSize=1;fillColor=#d5e8d4;strokeColor=#82b366;" parent="1" vertex="1">
          <mxGeometry x="540" y="680" width="120" height="80" as="geometry" />
        </mxCell>
        <mxCell id="MdLmkaZuM6xwngXtsAeK-34" value="Deferred &lt;br&gt;execution&lt;br&gt;row by row" style="shape=step;perimeter=stepPerimeter;whiteSpace=wrap;html=1;fixedSize=1;fillColor=#d5e8d4;strokeColor=#82b366;" parent="1" vertex="1">
          <mxGeometry x="690" y="680" width="120" height="80" as="geometry" />
        </mxCell>
        <mxCell id="MdLmkaZuM6xwngXtsAeK-35" value="All rows at&lt;div&gt;the same time&lt;/div&gt;" style="shape=step;perimeter=stepPerimeter;whiteSpace=wrap;html=1;fixedSize=1;fillColor=#f8cecc;strokeColor=#b85450;" parent="1" vertex="1">
          <mxGeometry x="690" y="579" width="120" height="80" as="geometry" />
        </mxCell>
        <mxCell id="MdLmkaZuM6xwngXtsAeK-37" value="&lt;div&gt;XLSX文件&lt;/div&gt;&lt;div&gt;解压缩&lt;/div&gt;" style="shape=step;perimeter=stepPerimeter;whiteSpace=wrap;html=1;fixedSize=1;fillColor=#dae8fc;strokeColor=#6c8ebf;" parent="1" vertex="1">
          <mxGeometry x="210" y="790" width="120" height="80" as="geometry" />
        </mxCell>
        <mxCell id="MdLmkaZuM6xwngXtsAeK-38" value="Excel 解析流程" style="rounded=0;whiteSpace=wrap;html=1;fillColor=#dae8fc;strokeColor=#6c8ebf;" parent="1" vertex="1">
          <mxGeometry x="40" y="800" width="120" height="60" as="geometry" />
        </mxCell>
        <mxCell id="MdLmkaZuM6xwngXtsAeK-39" value="&lt;div&gt;解析&lt;/div&gt;&lt;div&gt;OpenXML&lt;/div&gt;" style="shape=step;perimeter=stepPerimeter;whiteSpace=wrap;html=1;fixedSize=1;fillColor=#dae8fc;strokeColor=#6c8ebf;" parent="1" vertex="1">
          <mxGeometry x="380" y="790" width="120" height="80" as="geometry" />
        </mxCell>
        <mxCell id="MdLmkaZuM6xwngXtsAeK-40" value="一般框架" style="whiteSpace=wrap;html=1;fillColor=#f8cecc;strokeColor=#b85450;" parent="1" vertex="1">
          <mxGeometry x="40" y="899" width="120" height="60" as="geometry" />
        </mxCell>
        <mxCell id="MdLmkaZuM6xwngXtsAeK-41" value="内存" style="shape=step;perimeter=stepPerimeter;whiteSpace=wrap;html=1;fixedSize=1;fillColor=#f8cecc;strokeColor=#b85450;" parent="1" vertex="1">
          <mxGeometry x="210" y="889" width="120" height="80" as="geometry" />
        </mxCell>
        <mxCell id="MdLmkaZuM6xwngXtsAeK-42" value="内存" style="shape=step;perimeter=stepPerimeter;whiteSpace=wrap;html=1;fixedSize=1;fillColor=#f8cecc;strokeColor=#b85450;" parent="1" vertex="1">
          <mxGeometry x="380" y="889" width="120" height="80" as="geometry" />
        </mxCell>
        <mxCell id="MdLmkaZuM6xwngXtsAeK-43" value="MiniExcel" style="whiteSpace=wrap;html=1;fillColor=#d5e8d4;strokeColor=#82b366;" parent="1" vertex="1">
          <mxGeometry x="40" y="1000" width="120" height="60" as="geometry" />
        </mxCell>
        <mxCell id="MdLmkaZuM6xwngXtsAeK-44" value="Stream流" style="shape=step;perimeter=stepPerimeter;whiteSpace=wrap;html=1;fixedSize=1;fillColor=#d5e8d4;strokeColor=#82b366;" parent="1" vertex="1">
          <mxGeometry x="210" y="990" width="120" height="80" as="geometry" />
        </mxCell>
        <mxCell id="MdLmkaZuM6xwngXtsAeK-45" value="workbook &amp;amp;&lt;br&gt;worksheet" style="shape=step;perimeter=stepPerimeter;whiteSpace=wrap;html=1;fixedSize=1;fillColor=#f8cecc;strokeColor=#b85450;" parent="1" vertex="1">
          <mxGeometry x="540" y="889" width="120" height="80" as="geometry" />
        </mxCell>
        <mxCell id="MdLmkaZuM6xwngXtsAeK-46" value="模型转换" style="shape=step;perimeter=stepPerimeter;whiteSpace=wrap;html=1;fixedSize=1;fillColor=#dae8fc;strokeColor=#6c8ebf;" parent="1" vertex="1">
          <mxGeometry x="540" y="790" width="120" height="80" as="geometry" />
        </mxCell>
        <mxCell id="MdLmkaZuM6xwngXtsAeK-47" value="返回结果" style="shape=step;perimeter=stepPerimeter;whiteSpace=wrap;html=1;fixedSize=1;fillColor=#dae8fc;strokeColor=#6c8ebf;" parent="1" vertex="1">
          <mxGeometry x="690" y="790" width="120" height="80" as="geometry" />
        </mxCell>
        <mxCell id="MdLmkaZuM6xwngXtsAeK-48" value="Stream流" style="shape=step;perimeter=stepPerimeter;whiteSpace=wrap;html=1;fixedSize=1;fillColor=#d5e8d4;strokeColor=#82b366;" parent="1" vertex="1">
          <mxGeometry x="380" y="990" width="120" height="80" as="geometry" />
        </mxCell>
        <mxCell id="MdLmkaZuM6xwngXtsAeK-49" value="&lt;div&gt;POCO&lt;/div&gt;&lt;div&gt;或 dynamic&lt;/div&gt;" style="shape=step;perimeter=stepPerimeter;whiteSpace=wrap;html=1;fixedSize=1;fillColor=#d5e8d4;strokeColor=#82b366;" parent="1" vertex="1">
          <mxGeometry x="540" y="990" width="120" height="80" as="geometry" />
        </mxCell>
        <mxCell id="MdLmkaZuM6xwngXtsAeK-50" value="&lt;div&gt;延迟查询&lt;/div&gt;&lt;div&gt;一行一行返回&lt;/div&gt;" style="shape=step;perimeter=stepPerimeter;whiteSpace=wrap;html=1;fixedSize=1;fillColor=#d5e8d4;strokeColor=#82b366;" parent="1" vertex="1">
          <mxGeometry x="690" y="990" width="120" height="80" as="geometry" />
        </mxCell>
        <mxCell id="MdLmkaZuM6xwngXtsAeK-51" value="全部数据" style="shape=step;perimeter=stepPerimeter;whiteSpace=wrap;html=1;fixedSize=1;fillColor=#f8cecc;strokeColor=#b85450;" parent="1" vertex="1">
          <mxGeometry x="690" y="889" width="120" height="80" as="geometry" />
        </mxCell>
      </root>
    </mxGraphModel>
  </diagram>
</mxfile>
